<svg width="115" height="30" viewBox="0 0 115 30" fill="none" xmlns="http://www.w3.org/2000/svg">
<path d="M30.5 0H6.12089C3.01665 0 0.5 2.51665 0.5 5.62027V30L15.9951 14.5055L30.5 0Z" fill="#1D1D1F"/>
<path d="M0.5 30H24.0671C27.0678 30 29.5 27.4839 29.5 24.3797V0L0.5 30Z" fill="#C0E278"/>
<path d="M41.3783 24L43.4032 18.5521H39.5483L34.5 5H38.6053L42.2936 14.9204H44.7348L48.4231 5H52.5L45.4842 24H41.3783Z" fill="#C0E278"/>
<path d="M64.7359 20.6172C67.2313 19.4436 68.6274 17.3855 68.6903 15.089L72.3475 13.3692C73.1446 17.6767 70.7707 21.7743 66.3233 23.8666C60.9118 26.412 54.9867 24.5473 52.523 19.5035C50.0239 14.3875 52.2407 8.72234 57.6772 6.16588C62.1246 4.07423 66.8425 4.83689 69.7885 8.13276L66.132 9.85256C64.281 8.42694 61.7837 8.23 59.2633 9.41527C55.7302 11.077 54.3479 14.5306 55.982 17.8767C57.5818 21.1499 61.2271 22.2673 64.7359 20.6172Z" fill="#C0E278"/>
<path d="M80.8878 5H85.0593L94.5 24H90.328L88.1078 19.5218H77.8654L75.6453 24H71.5L80.8878 5ZM86.37 16.0474L82.9741 9.20782L79.5783 16.0474H86.37Z" fill="#C0E278"/>
<path d="M114.5 5V24H110.815V8.50169H100.185V24H96.5V5H114.5Z" fill="#C0E278"/>
<path d="M64.5 3H58.5V6H64.5V3Z" fill="#C0E278"/>
<path d="M60.5 18.0003C60.5 17.4478 60.052 17 59.5 17C58.9474 17 58.5 17.4478 58.5 18.0003C58.5 18.5522 58.9474 19 59.5 19C60.052 18.9994 60.5 18.5522 60.5 18.0003Z" fill="#C0E278"/>
<path d="M65.5 16.5C65.5 16.2238 65.2757 16 65 16C64.7238 16 64.5 16.2243 64.5 16.5C64.5 16.7762 64.7243 17 65 17C65.2757 17 65.5 16.7762 65.5 16.5Z" fill="#C0E278"/>
<path d="M65.5 20.4997C65.5 19.6712 64.828 19 63.9994 19C63.1714 19 62.5 19.6712 62.5 20.4997C62.5 21.3282 63.1714 22 63.9994 22C64.828 22 65.5 21.3282 65.5 20.4997Z" fill="#C0E278"/>
<path d="M63.5 17.5004C63.5 17.2239 63.2761 17 63.0004 17C62.7247 17 62.5 17.2239 62.5 17.5004C62.5 17.7761 62.7247 18 63.0004 18C63.2761 18 63.5 17.7761 63.5 17.5004Z" fill="#C0E278"/>
<path d="M67.5 17.5C67.5 17.2245 67.2761 17 66.9996 17C66.7239 17 66.5 17.2245 66.5 17.5C66.5 17.7763 66.7239 18 66.9996 18C67.2761 18 67.5 17.7763 67.5 17.5Z" fill="#C0E278"/>
</svg>
