<svg width="17" height="16" viewBox="0 0 17 16" fill="none" xmlns="http://www.w3.org/2000/svg">
<path d="M12.8612 6.18712C12.8636 4.79113 12.3927 3.4355 11.5253 2.34125C10.6579 1.24699 9.44512 0.478658 8.08473 0.16151C6.72434 -0.155637 5.29656 -0.00289055 4.03418 0.594847C2.7718 1.19258 1.74927 2.20005 1.1333 3.453C0.517341 4.70595 0.344277 6.13047 0.642327 7.49432C0.940378 8.85816 1.69196 10.0809 2.77454 10.9631C3.85713 11.8454 5.20685 12.3351 6.60366 12.3525C8.00047 12.3699 9.36198 11.9139 10.4662 11.0588L15.4107 16L16.5 14.9114L11.5555 9.97021C12.3988 8.88893 12.8581 7.55801 12.8612 6.18712ZM6.68059 10.8195C5.76378 10.8195 4.86757 10.5478 4.10527 10.0388C3.34298 9.52977 2.74884 8.8063 2.398 7.95985C2.04715 7.11339 1.95535 6.18198 2.13421 5.28339C2.31307 4.3848 2.75456 3.55939 3.40284 2.91155C4.05111 2.2637 4.87707 1.82251 5.77626 1.64377C6.67545 1.46503 7.60748 1.55676 8.4545 1.90738C9.30151 2.25799 10.0255 2.85173 10.5348 3.61352C11.0442 4.37531 11.316 5.27093 11.316 6.18712C11.316 7.4157 10.8277 8.59396 9.95834 9.46269C9.08903 10.3314 7.90998 10.8195 6.68059 10.8195Z" fill="#333333"/>
</svg>
