<svg width="18" height="18" viewBox="0 0 18 18" fill="none" xmlns="http://www.w3.org/2000/svg">
<g clip-path="url(#clip0_437_4450)">
<path fill-rule="evenodd" clip-rule="evenodd" d="M9 18C13.9706 18 18 13.9706 18 9C18 4.02944 13.9706 0 9 0C4.02944 0 0 4.02944 0 9C0 13.9706 4.02944 18 9 18Z" fill="#333333"/>
<path d="M9 5C7.34283 5 6 6.25859 6 7.8125C6 10.4984 9 14 9 14C9 14 12 10.4984 12 7.8125C12 6.25859 10.6572 5 9 5ZM9 9.17656C8.21542 9.17656 7.58173 8.58125 7.58173 7.84766C7.58173 7.11406 8.21794 6.51641 9 6.51641C9.78458 6.51641 10.4183 7.11172 10.4183 7.84766C10.4183 8.58125 9.78458 9.17656 9 9.17656Z" fill="white"/>
</g>
<defs>
<clipPath id="clip0_437_4450">
<rect width="18" height="18" fill="white"/>
</clipPath>
</defs>
</svg>
