<svg width="19" height="18" viewBox="0 0 19 18" fill="none" xmlns="http://www.w3.org/2000/svg">
<path fill-rule="evenodd" clip-rule="evenodd" d="M9.5 18C14.4706 18 18.5 13.9706 18.5 9C18.5 4.02944 14.4706 0 9.5 0C4.52944 0 0.5 4.02944 0.5 9C0.5 13.9706 4.52944 18 9.5 18Z" fill="#333333"/>
<path fill-rule="evenodd" clip-rule="evenodd" d="M5.5 6.52835V11.5094C5.5 11.7804 5.70479 12 5.98691 12H14.0131C14.2949 12 14.5 11.7778 14.5 11.5094V6.52835C14.5 6.23098 14.3166 6 14.0131 6H5.98691C5.67168 6 5.5 6.23665 5.5 6.52835ZM6.24004 6.96221C6.24004 6.84218 6.31504 6.77352 6.43486 6.77352C6.50898 6.77352 9.42549 8.56344 9.60215 8.66843L10.0586 8.94339C10.2033 8.84947 10.3486 8.76917 10.4986 8.67184C10.8048 8.48229 13.5288 6.77352 13.6038 6.77352C13.7239 6.77352 13.7986 6.84218 13.7986 6.96221C13.7986 7.08934 13.5458 7.21561 13.3812 7.31293C12.3467 7.92358 11.3125 8.58926 10.2883 9.22261C10.2285 9.26176 10.1128 9.34547 10.0261 9.3327C9.92939 9.31823 6.96162 7.47155 6.42168 7.16396C6.34053 7.11771 6.24004 7.07543 6.24004 6.96221Z" fill="white"/>
</svg>
