<svg width="19" height="18" viewBox="0 0 19 18" fill="none" xmlns="http://www.w3.org/2000/svg">
<g clip-path="url(#clip0_437_4465)">
<path fill-rule="evenodd" clip-rule="evenodd" d="M9.5 18C14.4706 18 18.5 13.9706 18.5 9C18.5 4.02944 14.4706 0 9.5 0C4.52944 0 0.5 4.02944 0.5 9C0.5 13.9706 4.52944 18 9.5 18Z" fill="#333333"/>
<path d="M13.1347 10.8045C12.803 10.4636 11.8599 9.825 11.2418 9.825C11.0986 9.825 10.9737 9.85682 10.8714 9.92273C10.5692 10.1159 10.3283 10.2659 10.2124 10.2659C10.1488 10.2659 10.0806 10.2091 9.93062 10.0795L9.90562 10.0568C9.48976 9.69545 9.40114 9.60227 9.2398 9.43409L9.19889 9.39091C9.16935 9.36136 9.14436 9.33409 9.11936 9.30909C8.97847 9.16364 8.87621 9.05909 8.51489 8.65L8.49899 8.63182C8.32628 8.43636 8.21266 8.30909 8.20584 8.21591C8.19903 8.125 8.27856 7.97727 8.48081 7.70227C8.72623 7.37045 8.73532 6.96136 8.51035 6.48636C8.33083 6.11136 8.03768 5.75227 7.77863 5.43636L7.7559 5.40909C7.5332 5.13636 7.27415 5 6.98555 5C6.66514 5 6.39926 5.17273 6.25837 5.26364C6.24701 5.27045 6.23565 5.27955 6.22429 5.28636C5.90842 5.48636 5.6789 5.76136 5.59255 6.04091C5.46302 6.46136 5.37667 7.00682 5.99704 8.14091C6.53334 9.12273 7.01964 9.78182 7.79226 10.575C8.51944 11.3205 8.84212 11.5614 9.56475 12.0841C10.3692 12.6659 11.1418 13 11.6827 13C12.1849 13 12.5803 13 13.1438 12.3205C13.7347 11.6068 13.4892 11.1705 13.1347 10.8045Z" fill="white"/>
</g>
<defs>
<clipPath id="clip0_437_4465">
<rect width="18" height="18" fill="white" transform="translate(0.5)"/>
</clipPath>
</defs>
</svg>
