<svg width="60" height="60" viewBox="0 0 60 60" fill="none" xmlns="http://www.w3.org/2000/svg">
<rect width="60" height="60" rx="30" fill="#CFF481"/>
<path d="M23.9915 36.192C22.4022 36.192 21.1595 35.7493 20.2635 34.864C19.3675 33.9787 18.9195 32.7147 18.9195 31.072V24.8H21.5115V30.976C21.5115 32.0427 21.7302 32.8107 22.1675 33.28C22.6048 33.7493 23.2182 33.984 24.0075 33.984C24.7968 33.984 25.4102 33.7493 25.8475 33.28C26.2848 32.8107 26.5035 32.0427 26.5035 30.976V24.8H29.0635V31.072C29.0635 32.7147 28.6155 33.9787 27.7195 34.864C26.8235 35.7493 25.5808 36.192 23.9915 36.192ZM29.9185 36L34.9105 24.8H37.4705L42.4785 36H39.7585L35.6625 26.112H36.6865L32.5745 36H29.9185ZM32.4145 33.6L33.1025 31.632H38.8625L39.5665 33.6H32.4145Z" fill="#333333"/>
</svg>
